<svg xmlns="http://www.w3.org/2000/svg" xmlns:xlink="http://www.w3.org/1999/xlink" width="548.26" height="160" viewBox="0 0 548.26 160">
  <defs>
    <clipPath id="clip-path">
      <rect id="Rectangle_20" data-name="Rectangle 20" width="548.259" height="160" fill="none"/>
    </clipPath>
  </defs>
  <g id="Group_17" data-name="Group 17" transform="translate(0 0)">
    <path id="Path_31" data-name="Path 31" d="M64.607.768V47.206H26.4V.768H0V116.692H26.4V70.927h38.2v45.765h26.4V.768Z" transform="translate(0 4.615)" fill="#101820"/>
    <g id="Group_7" data-name="Group 7" transform="translate(0.001 0)">
      <g id="Group_6" data-name="Group 6" clip-path="url(#clip-path)">
        <path id="Path_32" data-name="Path 32" d="M77.269,7.827h24.9V86.4h-24.9V76.471c-5.376,7.4-14.972,11.944-24.9,11.944-22.038,0-37.515-16.655-37.515-41.216,0-24.73,15.477-41.391,37.852-41.391,9.589,0,19.185,4.206,24.561,11.447ZM76.428,47.2A18.126,18.126,0,0,0,58.259,28.862c-10.6,0-18,8.243-18,18.337A17.983,17.983,0,0,0,58.434,65.368,18.272,18.272,0,0,0,76.428,47.2" transform="translate(89.278 34.902)" fill="#101820"/>
        <path id="Path_33" data-name="Path 33" d="M108.282,44.171V86.4h-24.9V45.685c0-12.112-7.4-16.823-13.627-16.823-6.729,0-15.141,3.533-15.141,16.655V86.4h-24.9V7.827h24.9V21.46C57.638,10.694,69.919,5.808,77.16,5.808c20.86,0,31.122,14.3,31.122,38.363" transform="translate(178.556 34.902)" fill="#101820"/>
        <path id="Path_34" data-name="Path 34" d="M122.587,121.307H92.306L68.074,89.336v31.971h-24.9V0h24.9V64.782L84.9,42.737h31.3L86.579,77.56Z" transform="translate(259.468 -0.003)" fill="#101820"/>
        <path id="Path_35" data-name="Path 35" d="M113.6,6.1h26.748L91.9,123.359H65.312L84.665,75.246,53.711,6.1H81.3L97.619,46.815Z" transform="translate(322.778 36.637)" fill="#101820"/>
        <path id="Path_36" data-name="Path 36" d="M66.047,74.891c0-24.9,20.195-41.391,42.562-41.391s42.737,16.486,42.737,41.391c0,24.73-20.356,41.216-42.737,41.216S66.047,99.621,66.047,74.891M85.064,1.2h47.609V15.836H85.064Zm40.88,73.691c0-10.767-7.739-18.337-17.335-18.337s-17.321,7.57-17.321,18.337S99.027,93.06,108.609,93.06s17.335-7.4,17.335-18.169" transform="translate(396.913 7.21)" fill="#101820"/>
      </g>
    </g>
  </g>
</svg>
